<?xml version="1.0" encoding="iso-8859-1"?>
<!-- Generator: Adobe Illustrator 19.0.0, SVG Export Plug-In . SVG Version: 6.00 Build 0)  -->
<svg version="1.1" id="Layer_1" xmlns="http://www.w3.org/2000/svg" xmlns:xlink="http://www.w3.org/1999/xlink" x="0px" y="0px"
	 viewBox="0 0 512 512" style="enable-background:new 0 0 512 512;" xml:space="preserve">
<g>
	<g>
		<path d="M66.783,44.522v256h278.261v-256H66.783z M278.261,144.696H133.565v-33.391h144.696V144.696z"/>
	</g>
</g>
<g>
	<g>
		<polygon points="411.826,0 411.826,333.913 0,333.913 0,478.609 33.391,478.609 33.391,400.696 111.304,400.696 111.304,478.609 
			144.696,478.609 144.696,400.696 300.522,400.696 300.522,478.609 333.913,478.609 333.913,400.696 411.826,400.696 
			411.826,478.609 445.217,478.609 445.217,33.391 512,33.391 512,0 		"/>
	</g>
</g>
<g>
	<g>
		<rect x="33.391" y="478.609" width="77.913" height="33.391"/>
	</g>
</g>
<g>
	<g>
		<rect x="333.913" y="478.609" width="77.913" height="33.391"/>
	</g>
</g>
<g>
</g>
<g>
</g>
<g>
</g>
<g>
</g>
<g>
</g>
<g>
</g>
<g>
</g>
<g>
</g>
<g>
</g>
<g>
</g>
<g>
</g>
<g>
</g>
<g>
</g>
<g>
</g>
<g>
</g>
</svg>
